# xmcd
#
# Track frame offsets: 
#        150
#        14703
#        25694
#        38556
#        50754
#        65260
#        76100
#        89735
#        103448
#        115508
#        128733
#        143308
#        155965
#        167769
#        179677
#        191254
#        202632
#        215375
#
# Disc length: 3058 seconds
#
# Revision: 0
# Processed by: cddbd v1.5.2PL0 Copyright (c) Steve Scherf et al.
# Submitted via: ExactAudioCopy v1.0b3
#
DISCID=f00bf012
DTITLE=Various Artist - The J.O.B Records Blues Story
DYEAR=2012
DGENRE=Blues
TTITLE0="Baby Face" Leroy Foster - My Head Can't Rest Anymore
TTITLE1=Snooky Pryor - Boogy Fool
TTITLE2=Sunnyland Slim - Down Home Child
TTITLE3=Alfred "The Fat Man" Wallace - You've Gotta Stop This Mess
TTITLE4=Floyd Jones - Dark Road
TTITLE5=Robert Jr. Lockwood - Pearly B
TTITLE6="Baby Face" Leroy Foster - Pet Rabbit
TTITLE7=Sunnyland Slim Trio - Leaving Your Town
TTITLE8=Eddie Boyd - Five Long Years
TTITLE9=J.B. Lenoir - How Much More
TTITLE10=Eddie Boyd - It's Miserable To Be Alone
TTITLE11=John Brim Trio - Trouble In The Morning
TTITLE12=J.B. Lenoir - Let's Roll
TTITLE13=John Lee - Rhythm Rockin' Boogie
TTITLE14=Snooky Pryor - I'm Getting Tired
TTITLE15=Johnny Shines - Rambling
TTITLE16=Moody Jones - Why Should I Worry
TTITLE17=Grace Brim - Man Around My Door
EXTD=
EXTT0=
EXTT1=
EXTT2=
EXTT3=
EXTT4=
EXTT5=
EXTT6=
EXTT7=
EXTT8=
EXTT9=
EXTT10=
EXTT11=
EXTT12=
EXTT13=
EXTT14=
EXTT15=
EXTT16=
EXTT17=
PLAYORDER=
